<svg id="Capa_1" enable-background="new 0 0 502 502" height="512" viewBox="0 0 502 502" width="512" xmlns="http://www.w3.org/2000/svg" xmlns:xlink="http://www.w3.org/1999/xlink"><linearGradient id="SVGID_1_" gradientUnits="userSpaceOnUse" x1="246.194" x2="246.194" y1="321.228" y2="100.896"><stop offset="0" stop-color="#ededed"/><stop offset="1" stop-color="#ced5d5"/></linearGradient><linearGradient id="SVGID_2_" gradientUnits="userSpaceOnUse" x1="209.34" x2="371.173" y1="283.934" y2="283.934"><stop offset="0" stop-color="#01c2a0"/><stop offset=".9794" stop-color="#77e4d3"/></linearGradient><linearGradient id="SVGID_3_" gradientUnits="userSpaceOnUse" x1="60.1" x2="60.1" y1="321.228" y2="142.663"><stop offset=".0206" stop-color="#77e4d3"/><stop offset="1" stop-color="#01c2a0"/></linearGradient><linearGradient id="SVGID_4_" gradientUnits="userSpaceOnUse" x1="238.599" x2="429.573" y1="130.534" y2="130.534"><stop offset=".0005580357" stop-color="#f5aa3e"/><stop offset=".9777" stop-color="#fac986"/></linearGradient><linearGradient id="SVGID_5_" gradientUnits="userSpaceOnUse" x1="163.664" x2="163.664" y1="188.476" y2="70.639"><stop offset=".0005580357" stop-color="#f4e46a"/><stop offset=".9777" stop-color="#f7f0a9"/></linearGradient><linearGradient id="lg1"><stop offset=".0212" stop-color="#f3385d"/><stop offset="1" stop-color="#fd869c"/></linearGradient><linearGradient id="SVGID_6_" gradientUnits="userSpaceOnUse" x1="383.76" x2="502" xlink:href="#lg1" y1="232.917" y2="232.917"/><linearGradient id="SVGID_7_" gradientUnits="userSpaceOnUse" x1="242.319" x2="242.319" xlink:href="#lg1" y1="431.361" y2="232.361"/><g><path d="m63.264 321.228h375.469l20.635-64.792-59.716-104.156-146.7-51.384-160.071 60.267-59.86 110.549z" fill="url(#SVGID_1_)"/><path d="m230.917 279.057 115.979-73.592c7.373-4.678 17.142-2.494 21.82 4.879 3.384 5.334 3.165 11.934 0 16.941l-73.592 115.979c-13.766 21.695-42.512 28.122-64.207 14.356-28.542-18.111-28.996-59.992 0-78.563z" fill="url(#SVGID_2_)"/><path d="m295.124 343.263 53.581-84.442c-8.984-13.045-20.301-24.362-33.346-33.346l-84.442 53.581z" fill="#01ab8b"/><path d="m109.208 145.816-34.831-3.153c-40.259 39.403-67.377 92.169-74.21 151.114-1.694 14.612 9.694 27.451 24.404 27.451h38.693c.532-52.067 22.24-99.051 56.935-132.752z" fill="url(#SVGID_3_)"/><path d="m429.573 144.606-15.136 33.462-30.677 12.35c-33.541-33.551-79.728-54.464-130.809-54.977l-14.353-30.684 14.353-34.108c68.956.523 131.342 28.677 176.622 73.957z" fill="url(#SVGID_4_)"/><path d="m170.316 290.182 8.913-27.158c2.215-6.749.445-14.171-4.578-19.194-7.528-7.528-19.844-7.373-27.074.442-19.048 20.589-31.486 47.376-33.91 76.956h108.54z" fill="#d1cfd6"/><path d="m252.952 70.649v64.793c-.651-.02-1.302-.02-1.953-.02-50.854 0-96.992 20.213-130.799 53.053l-45.823-45.813c45.546-44.56 107.873-72.024 176.621-72.024.651.001 1.302.001 1.954.011z" fill="url(#SVGID_5_)"/><path d="m501.834 293.814c-6.716-58-33.076-110.014-72.261-149.207l-45.813 45.813c33.557 33.557 54.451 79.745 54.972 130.809h38.692c14.696-.001 26.1-12.818 24.41-27.415z" fill="url(#SVGID_6_)"/><circle cx="242.319" cy="331.861" fill="url(#SVGID_7_)" r="99.5"/><g><path d="m284.36 289.011c-3.489-3.421-7.323-6.369-11.393-8.762-4.696-2.761-6.266-8.807-3.504-13.504 2.76-4.695 8.803-6.268 13.504-3.504 5.454 3.206 10.569 7.136 15.204 11.679 3.891 3.814 3.953 10.06.14 13.951-3.816 3.892-10.06 3.953-13.951.14z" fill="#fdb0bf"/></g><g><path d="m247.93 272.08c-1.853-.171-3.74-.259-5.611-.259-5.448 0-9.865-4.417-9.865-9.865s4.417-9.865 9.865-9.865c2.477 0 4.979.116 7.435.344 5.425.504 9.414 5.31 8.91 10.735-.503 5.424-5.31 9.415-10.734 8.91z" fill="#fdb0bf"/></g><g><ellipse cx="170.316" cy="351.209" fill="#fb99ac" rx="12.237" ry="9.834"/><ellipse cx="314.322" cy="351.209" fill="#fb99ac" rx="12.237" ry="9.834"/><circle cx="191.296" cy="326.944" fill="#fff" r="24.265"/><circle cx="293.343" cy="326.944" fill="#fff" r="24.265"/><path d="m199.312 336.845c-2.647.001-5.213-1.404-6.579-3.888-.386-.702-.995-.85-1.438-.85-.442 0-1.051.147-1.437.85-1.996 3.629-6.557 4.952-10.186 2.959-3.63-1.996-4.955-6.556-2.959-10.186 2.924-5.319 8.512-8.623 14.582-8.623s11.658 3.304 14.582 8.623c1.996 3.63.671 8.189-2.959 10.186-1.146.63-2.385.929-3.606.929z" fill="#383842"/><path d="m285.327 336.845c-1.222 0-2.46-.299-3.606-.929-3.63-1.995-4.955-6.556-2.959-10.186 2.924-5.318 8.511-8.623 14.581-8.623s11.658 3.304 14.583 8.623c1.996 3.63.671 8.189-2.959 10.186-3.629 1.996-8.19.67-10.186-2.959-.386-.702-.995-.85-1.438-.85-.442 0-1.051.147-1.437.85-1.365 2.483-3.932 3.888-6.579 3.888z" fill="#383842"/><g><path d="m251.881 359.555h-19.123c-5.332 0-9.655-4.323-9.655-9.655 0-5.332 4.323-9.655 9.655-9.655h19.123c5.332 0 9.655 4.323 9.655 9.655-.001 5.332-4.323 9.655-9.655 9.655z" fill="#383842"/></g></g></g></svg>