<svg height="511pt" viewBox="0 -34 511.99948 511" width="511pt" xmlns="http://www.w3.org/2000/svg"><path d="m121.851562 201.144531c0 36.628907 29.800782 66.425781 66.425782 66.425781 36.628906 0 66.425781-29.796874 66.425781-66.425781 0-36.625-29.796875-66.425781-66.425781-66.425781-36.625 0-66.425782 29.800781-66.425782 66.425781zm117.40625 0c0 28.113281-22.871093 50.980469-50.980468 50.980469s-50.980469-22.867188-50.980469-50.980469c0-28.109375 22.871094-50.976562 50.980469-50.976562s50.980468 22.867187 50.980468 50.976562zm0 0"/><path d="m392.214844 271.929688c-24.289063 0-44.050782 19.761718-44.050782 44.050781 0 24.292969 19.761719 44.054687 44.050782 44.054687 6.222656 0 12.242187-1.273437 17.890625-3.785156 3.894531-1.734375 5.648437-6.300781 3.917969-10.195312-1.734376-3.898438-6.300782-5.648438-10.195313-3.917969-3.65625 1.625-7.566406 2.453125-11.613281 2.453125-15.773438 0-28.605469-12.835938-28.605469-28.609375 0-15.773438 12.832031-28.605469 28.605469-28.605469 15.777344 0 28.609375 12.832031 28.609375 28.605469 0 3.367187-.578125 6.65625-1.714844 9.785156-1.457031 4.007813.609375 8.4375 4.617187 9.894531 4.007813 1.457032 8.4375-.609375 9.898438-4.617187 1.753906-4.824219 2.644531-9.890625 2.644531-15.0625 0-24.289063-19.761719-44.050781-44.054687-44.050781zm0 0"/><path d="m485.34375 324.417969c.253906-2.808594.378906-5.632813.378906-8.4375 0-2.804688-.125-5.628907-.378906-8.4375l20.574219-19.257813c6.53125-6.117187 7.96875-15.804687 3.496093-23.554687l-14.214843-24.617188c-4.476563-7.753906-13.582031-11.351562-22.148438-8.75l-27.003906 8.199219c-4.59375-3.246094-9.476563-6.070312-14.578125-8.4375l-6.390625-27.457031c-2.03125-8.71875-9.699219-14.804688-18.648437-14.804688h-28.429688c-8.953125 0-16.621094 6.085938-18.648438 14.804688l-6.390624 27.457031c-.820313.378906-1.621094.789062-2.429688 1.191406l-16.738281-15.667968c.546875-5.132813.820312-10.332032.820312-15.503907 0-5.167969-.273437-10.367187-.820312-15.503906l33.828125-31.667969c9.597656-8.984375 11.710937-23.210937 5.136718-34.597656l-21.429687-37.109375c-6.574219-11.386719-19.949219-16.667969-32.53125-12.847656l-44.402344 13.488281c-8.359375-6.105469-17.339843-11.304688-26.789062-15.511719l-2.796875-12.027343c-.96875-4.152344-5.117188-6.738282-9.273438-5.769532s-6.738281 5.121094-5.769531 9.273438l3.683594 15.832031c.5625 2.429687 2.269531 4.433594 4.574219 5.386719 10.769531 4.445312 20.914062 10.320312 30.140624 17.457031 1.980469 1.53125 4.578126 2.007813 6.96875 1.28125l48.152344-14.628906c5.675782-1.722657 11.707032.660156 14.667969 5.792969l21.429687 37.109374c2.964844 5.132813 2.011719 11.546876-2.316406 15.597657l-36.683594 34.339843c-1.824218 1.707032-2.710937 4.191407-2.375 6.667969.769532 5.746094 1.160157 11.613281 1.160157 17.4375 0 5.835938-.390625 11.703125-1.160157 17.4375-.335937 2.476563.550782 4.960938 2.375 6.667969l13.988282 13.097656-22.992188-6.980468c-8.566406-2.601563-17.671875.996093-22.144531 8.746093l-14.21875 24.621094c-4.472656 7.75-3.035156 17.433594 3.5 23.550781l20.570313 19.261719c-.09375 1.042969-.152344 2.089844-.210938 3.136719l-23.742188-7.210938c-2.390624-.726562-4.988281-.25-6.96875 1.28125-9.234374 7.144532-19.375 13.011719-30.132812 17.445313-2.308594.949219-4.015625 2.957031-4.582031 5.390625l-11.394531 48.964844c-1.34375 5.773437-6.421876 9.808593-12.347657 9.808593h-42.855469c-5.929687 0-11.007812-4.035156-12.351562-9.808593l-11.390625-48.964844c-.566406-2.433594-2.273437-4.441406-4.582031-5.390625-10.757813-4.433594-20.898438-10.300781-30.132813-17.445313-1.980469-1.53125-4.578125-2.007812-6.972656-1.28125l-48.152344 14.621094c-5.667969 1.71875-11.703125-.660156-14.664062-5.792969l-21.429688-37.105469c-2.964843-5.132812-2.011719-11.546874 2.3125-15.597656l36.6875-34.347656c1.824219-1.707031 2.707031-4.191406 2.375-6.667969-.773437-5.734375-1.164062-11.601562-1.164062-17.4375 0-5.824219.390625-11.691406 1.164062-17.4375.332031-2.476562-.554687-4.960937-2.378906-6.667969l-36.683594-34.339843c-4.324219-4.050781-5.277343-10.464844-2.316406-15.597657l21.429687-37.109374c2.964844-5.132813 8.996094-7.515626 14.667969-5.792969l48.152344 14.628906c2.390625.726563 4.988281.25 6.96875-1.28125 9.230469-7.136719 19.371094-13.011719 30.140625-17.457031 2.304688-.953125 4.007812-2.957032 4.574219-5.386719l11.394531-48.949219c1.34375-5.773437 6.421875-9.808594 12.347656-9.808594h42.859375c5.925781 0 11.003907 4.035157 12.347657 9.808594l1.222656 5.25c.96875 4.152344 5.117187 6.738282 9.273437 5.769532 4.15625-.964844 6.738281-5.117188 5.769531-9.269532l-1.222656-5.253906c-2.980468-12.804688-14.242187-21.75-27.390625-21.75h-42.859375c-13.148437 0-24.410156 8.945312-27.390625 21.75l-10.507812 45.144531c-9.449219 4.207031-18.429688 9.410157-26.789063 15.511719l-44.402344-13.488281c-12.578124-3.820313-25.957031 1.460937-32.53125 12.847656l-21.425781 37.113281c-6.574219 11.382813-4.464843 25.609375 5.136719 34.59375l33.824219 31.667969c-.542969 5.136719-.820313 10.335937-.820313 15.503906 0 5.171875.277344 10.371094.820313 15.503907l-33.828125 31.671874c-9.597656 8.984376-11.707032 23.214844-5.132813 34.597657l21.429688 37.105469c6.570312 11.382812 19.949219 16.667968 32.527343 12.847656l44.402344-13.480469c8.367188 6.109375 17.347656 11.304687 26.789063 15.503906l10.507812 45.160157c2.980469 12.808593 14.246094 21.75 27.394531 21.75h42.855469c13.148438 0 24.414063-8.945313 27.394531-21.75l10.507813-45.160157c9.441406-4.199219 18.421875-9.398437 26.789063-15.507812l22.695312 6.894531-18.578125 17.394531c-6.535156 6.117188-7.972656 15.800781-3.5 23.554688l14.21875 24.621093c4.472656 7.75 13.578125 11.347657 22.144531 8.746094l27.003906-8.199218c4.59375 3.246093 9.476563 6.070312 14.578126 8.4375l6.390624 27.464843c2.03125 8.71875 9.699219 14.808594 18.648438 14.808594h28.429688c8.953124 0 16.621093-6.089844 18.648437-14.808594l6.390625-27.464843c5.101562-2.367188 9.984375-5.191407 14.578125-8.4375l27.003906 8.199218c8.566407 2.601563 17.671875-.996094 22.148438-8.746094l14.214843-24.621093c4.472657-7.75 3.035157-17.4375-3.496093-23.550781zm10.691406 35.089843-14.214844 24.621094c-.863281 1.496094-2.625 2.191406-4.28125 1.691406l-30.714843-9.328124c-2.394531-.730469-4.992188-.25-6.96875 1.28125-5.5 4.253906-11.550781 7.753906-17.972657 10.40625-2.308593.949218-4.011718 2.957031-4.578124 5.386718l-7.269532 31.234375c-.390625 1.683594-1.875 2.859375-3.605468 2.859375h-28.429688c-1.730469 0-3.210938-1.175781-3.605469-2.859375l-7.265625-31.234375c-.566406-2.429687-2.273437-4.4375-4.578125-5.390625-6.425781-2.648437-12.472656-6.148437-17.976562-10.40625-1.367188-1.058593-3.035157-1.613281-4.722657-1.613281-.753906 0-1.507812.109375-2.246093.335938l-30.714844 9.324218c-1.65625.503906-3.417969-.191406-4.28125-1.691406l-14.214844-24.617188c-.867187-1.5-.589843-3.371093.675781-4.554687l23.398438-21.90625c1.820312-1.703125 2.707031-4.1875 2.375-6.660156-.460938-3.441407-.691406-6.945313-.691406-10.40625 0-3.460938.230468-6.964844.691406-10.40625.332031-2.472657-.554688-4.957031-2.375-6.660157l-23.398438-21.90625c-1.265624-1.179687-1.542968-3.054687-.679687-4.554687l14.21875-24.617187c.863281-1.5 2.625-2.191407 4.277344-1.691407l30.71875 9.328125c2.394531.726563 4.992187.25 6.96875-1.28125 5.503906-4.257812 11.550781-7.757812 17.976562-10.410156 2.304688-.949219 4.011719-2.957031 4.574219-5.386719l7.269531-31.222656c.390625-1.6875 1.875-2.863281 3.605469-2.863281h28.429688c1.730468 0 3.214843 1.175781 3.605468 2.863281l7.269532 31.222656c.5625 2.429688 2.269531 4.4375 4.574218 5.386719 6.425782 2.652344 12.472656 6.152344 17.976563 10.410156 1.976562 1.53125 4.574219 2.007813 6.96875 1.28125l30.714843-9.328125c1.65625-.503906 3.417969.191407 4.28125 1.691407l14.214844 24.621093c.867188 1.496094.589844 3.371094-.675781 4.550781l-23.398437 21.90625c-1.824219 1.707032-2.707032 4.1875-2.375 6.660157.457031 3.445312.691406 6.945312.691406 10.40625 0 3.460937-.234375 6.964843-.691406 10.40625-.332032 2.472656.550781 4.957031 2.375 6.660156l23.398437 21.90625c1.265625 1.183594 1.542969 3.054687.675781 4.554687zm0 0"/></svg>