<svg id="Layer_1" enable-background="new 0 0 512 512" height="512" viewBox="0 0 512 512" width="512" xmlns="http://www.w3.org/2000/svg"><g><path d="m400 224h-16v-96c0-70.579-57.421-128-128-128-70.58 0-128 57.421-128 128v96h-16c-13.234 0-24 10.766-24 24v224c0 22.056 17.944 40 40 40h256c22.056 0 40-17.944 40-40v-224c0-13.234-10.767-24-24-24zm-256-96c0-61.757 50.243-112 112-112s112 50.243 112 112v96h-32v-96c0-44.112-35.888-80-80-80s-80 35.888-80 80v96h-32zm176 96h-128v-96c0-35.29 28.71-64 64-64s64 28.71 64 64zm88 248c0 13.234-10.767 24-24 24h-256c-13.234 0-24-10.766-24-24v-224c0-4.411 3.589-8 8-8h288c4.411 0 8 3.589 8 8z"/><path d="m256 296c-26.467 0-48 21.533-48 48 0 13.847 5.792 26.654 16 35.755v36.245c0 13.234 10.766 24 24 24h16c13.233 0 24-10.766 24-24v-36.245c10.208-9.1 16-21.907 16-35.755 0-26.467-21.532-48-48-48zm19.195 73.603c-1.537 1.155-2.716 2.947-3.073 5.05-.176 1.028-.122-2.206-.122 41.347 0 4.411-3.589 8-8 8h-16c-4.411 0-8-3.589-8-8 0-42.5.435-41.314-1.025-43.911-.515-.918-1.212-1.727-2.045-2.381-25.162-19.724-10.813-57.708 19.07-57.708 17.645 0 32 14.355 32 32 0 10.16-4.667 19.492-12.805 25.603z"/></g></svg>