<svg id="Icons" height="512" viewBox="0 0 74 74" width="512" xmlns="http://www.w3.org/2000/svg"><path d="m37 72a35 35 0 1 1 25.31-10.823 35.039 35.039 0 0 1 -25.31 10.823zm-.019-68a33 33 0 0 0 -32.981 33 33 33 0 1 0 34.579-32.963q-.801-.037-1.598-.037z"/><path d="m37 65.083a28.083 28.083 0 0 1 0-56.166c.447 0 .9.011 1.352.032a28.254 28.254 0 0 1 26.702 26.735 28.089 28.089 0 0 1 -28.054 29.399zm0-54.166a26.08 26.08 0 1 0 1.258.03c-.421-.02-.845-.03-1.258-.03z"/><path d="m31.492 52.2h-6.437a1 1 0 0 1 -1-1v-28.4a1 1 0 0 1 1-1h6.437a1 1 0 0 1 1 1v28.4a1 1 0 0 1 -1 1zm-5.437-2h4.437v-26.4h-4.437z"/><path d="m48.945 52.2h-6.437a1 1 0 0 1 -1-1v-28.4a1 1 0 0 1 1-1h6.437a1 1 0 0 1 1 1v28.4a1 1 0 0 1 -1 1zm-5.437-2h4.437v-26.4h-4.437z"/></svg>