<?xml version="1.0" encoding="UTF-8"?>
<svg xmlns="http://www.w3.org/2000/svg" id="Layer_3" data-name="Layer 3" viewBox="0 0 64 64" width="512" height="512"><path d="M34,1A16.019,16.019,0,0,0,18,17v8a5.006,5.006,0,0,0-5,5V47.586L8.122,52.465a3.823,3.823,0,0,0,4.908,5.829A4.993,4.993,0,0,0,18,63H50a5.006,5.006,0,0,0,5-5V52.816A3,3,0,0,0,57,50V38a3,3,0,0,0-2-2.816V30a5.006,5.006,0,0,0-5-5V17A16.019,16.019,0,0,0,34,1ZM10.829,57a1.828,1.828,0,0,1-1.293-3.121l9.224-9.225a10.091,10.091,0,0,0,2.586,2.586l-9.224,9.225A1.819,1.819,0,0,1,10.829,57ZM35,39a7.945,7.945,0,0,1-.589,3H24V36H34.411A7.945,7.945,0,0,1,35,39Zm1.539-3H44v6H36.539a9.992,9.992,0,0,0,0-6ZM23,34a1,1,0,0,0-1,1v8a1,1,0,0,0,1,1H33.235a8,8,0,1,1,0-10ZM54,51H52a1,1,0,0,1-1-1V49h4v1A1,1,0,0,1,54,51Zm0-14a1,1,0,0,1,1,1v1H51V38a1,1,0,0,1,1-1Zm-3,4h4v2H51Zm0,4h4v2H51Zm2-15v5H52a3,3,0,0,0-3,3V50a3,3,0,0,0,3,3h1v5a3,3,0,0,1-3,3H18a3,3,0,0,1-3-3V56.414l8.177-8.177A9.972,9.972,0,0,0,35.647,44H45a1,1,0,0,0,1-1V35a1,1,0,0,0-1-1H35.647a9.992,9.992,0,0,0-17.884,8.823L15,45.586V30a3,3,0,0,1,3-3H50A3,3,0,0,1,53,30ZM42,25H26V17a8,8,0,0,1,16,0Zm2,0V17a10,10,0,0,0-20,0v8H20V17a14,14,0,0,1,28,0v8Z"/></svg>
