<?xml version="1.0" encoding="iso-8859-1"?>
<!-- Generator: Adobe Illustrator 16.0.0, SVG Export Plug-In . SVG Version: 6.00 Build 0)  -->
<!DOCTYPE svg PUBLIC "-//W3C//DTD SVG 1.1//EN" "http://www.w3.org/Graphics/SVG/1.1/DTD/svg11.dtd">
<svg version="1.1" id="Capa_1" xmlns="http://www.w3.org/2000/svg" xmlns:xlink="http://www.w3.org/1999/xlink" x="0px" y="0px"
	 width="28.274px" height="28.273px" viewBox="0 0 28.274 28.273" style="enable-background:new 0 0 28.274 28.273;"
	 xml:space="preserve">
<g>
	<g>
		<path d="M21.295,2.601h2.636V0h-2.636h-1.225H8.149H6.924H4.342v2.601h1.53h1.052v7.674l5.817,3.876l-6.079,3.77l0.027,0.044
			l-0.014,0.008v7.7H5.872h-1.53v2.601h19.589v-2.601h-2.885v-7.69l-5.896-3.823l6.156-3.817l-0.027-0.044l0.016-0.009V2.601z
			 M19.821,18.871v6.802H7.901v-7.018l6.008-3.725L19.821,18.871z M20.071,9.607l-6.103,3.785L8.149,9.615V2.601h11.921V9.607z"/>
		<polygon points="19.342,9.004 19.342,6.122 8.884,6.122 8.884,8.991 13.961,12.346 		"/>
		<polygon points="11.455,23.605 8.578,23.992 8.578,25.093 19.178,25.093 19.178,23.992 16.558,23.673 13.879,22.621 		"/>
	</g>
</g>
<g>
</g>
<g>
</g>
<g>
</g>
<g>
</g>
<g>
</g>
<g>
</g>
<g>
</g>
<g>
</g>
<g>
</g>
<g>
</g>
<g>
</g>
<g>
</g>
<g>
</g>
<g>
</g>
<g>
</g>
</svg>
