<?xml version="1.0" encoding="iso-8859-1"?>
<!-- Generator: Adobe Illustrator 21.0.0, SVG Export Plug-In . SVG Version: 6.00 Build 0)  -->
<svg version="1.1" id="Capa_1" xmlns="http://www.w3.org/2000/svg" xmlns:xlink="http://www.w3.org/1999/xlink" x="0px" y="0px"
	 viewBox="0 0 511.999 511.999" style="enable-background:new 0 0 511.999 511.999;" xml:space="preserve">
<g>
	<g>
		<path d="M485.075,61.611L430.356,6.892C425.911,2.447,420.003,0,413.719,0H236.045c-8.554,0-15.513,6.959-15.513,15.513v144.245
			c0,4.142,3.358,7.5,7.5,7.5s7.5-3.358,7.5-7.5V15.513c0-0.283,0.23-0.513,0.513-0.513h168.799v56.608
			c0,8.554,6.959,15.513,15.514,15.513h56.608v232.907c0,0.283-0.23,0.514-0.513,0.514H342.476
			c3.399-10.247,5.246-21.195,5.246-32.568c0-57.16-46.503-103.663-103.663-103.663s-103.663,46.503-103.663,103.663
			c0,25.887,9.538,49.587,25.284,67.772l-26.593,26.592c-8.69-4.444-19.621-3.044-26.887,4.221l-85.406,85.406
			c-9.013,9.015-9.013,23.682,0,32.697l0.576,0.576c4.507,4.506,10.428,6.76,16.348,6.76c5.92,0,11.841-2.253,16.348-6.76
			l85.406-85.406c7.264-7.264,8.664-18.196,4.221-26.887l26.592-26.592c18.185,15.745,41.886,25.284,67.772,25.284
			c40.024,0,74.819-22.801,92.086-56.095h140.308c8.554,0,15.513-6.959,15.513-15.514V78.248
			C491.966,71.964,489.519,66.055,485.075,61.611z M420.358,72.122c-0.284,0.001-0.514-0.23-0.514-0.513V17.593l54.529,54.528
			H420.358z M49.461,494.633c-3.166,3.166-8.317,3.166-11.483,0l-0.575-0.575c-3.166-3.166-3.166-8.317,0-11.483l67.106-67.106
			l12.059,12.059L49.461,494.633z M134.866,409.227l-7.692,7.692l-12.059-12.059l7.692-7.692c3.166-3.166,8.317-3.166,11.483,0
			l0.576,0.576C138.032,400.91,138.032,406.061,134.866,409.227z M244.059,376.638c-48.889,0-88.663-39.774-88.663-88.663
			s39.774-88.663,88.663-88.663s88.663,39.774,88.663,88.663S292.947,376.638,244.059,376.638z"/>
	</g>
</g>
<g>
	<g>
		<path d="M413.065,193.34l-24.957-9.982c-0.196-0.078-0.323-0.265-0.323-0.476v-15.109c0-0.065-0.008-0.128-0.01-0.192
			c5.031-6.635,8.023-14.898,8.023-23.849v-24.042h0.004c0-17.391-17.744-31.541-39.555-31.541s-39.555,14.149-39.555,31.541v24.042
			c0,8.95,2.992,17.213,8.023,23.848c-0.002,0.064-0.01,0.127-0.01,0.192v15.109c0,0.211-0.126,0.398-0.323,0.476
			c-3.846,1.538-5.717,5.903-4.179,9.749c1.173,2.933,3.989,4.717,6.966,4.717c0.927,0,1.87-0.173,2.783-0.538
			c5.924-2.37,9.752-8.023,9.752-14.404v-3.234c5.036,2.329,10.637,3.638,16.54,3.638s11.504-1.309,16.54-3.638v3.234
			c0,6.38,3.828,12.034,9.752,14.403l24.956,9.982c3.256,1.303,5.36,4.411,5.36,7.917v24.709c0,0.283-0.23,0.514-0.514,0.514
			h-40.068c-4.142,0-7.5,3.358-7.5,7.5s3.358,7.5,7.5,7.5h40.068c8.554,0,15.514-6.959,15.514-15.514v-24.708
			C427.855,205.508,422.049,196.934,413.065,193.34z M380.804,143.731c0,13.539-11.015,24.555-24.555,24.555
			s-24.555-11.015-24.555-24.555V119.69c0-8.966,11.244-16.54,24.555-16.54s24.555,7.574,24.555,16.54V143.731z"/>
	</g>
</g>
<g>
	<g>
		<path d="M260.085,320.544h-8.527v-33.99c13.782-3.375,24.041-15.825,24.041-30.633c0-17.391-14.149-31.541-31.542-31.541
			c-17.391,0-31.541,14.149-31.541,31.541c0,14.807,10.259,27.258,24.041,30.633v57.516c0,4.142,3.358,7.5,7.5,7.5
			s7.5-3.358,7.5-7.5v-8.526h8.527c4.142,0,7.5-3.358,7.5-7.5S264.227,320.544,260.085,320.544z M244.059,272.463
			c-9.12-0.001-16.54-7.421-16.54-16.541s7.42-16.54,16.54-16.54c9.121,0,16.541,7.42,16.541,16.54
			C260.6,265.043,253.18,272.463,244.059,272.463z"/>
	</g>
</g>
<g>
</g>
<g>
</g>
<g>
</g>
<g>
</g>
<g>
</g>
<g>
</g>
<g>
</g>
<g>
</g>
<g>
</g>
<g>
</g>
<g>
</g>
<g>
</g>
<g>
</g>
<g>
</g>
<g>
</g>
</svg>
